<?xml version="1.0" encoding="utf-8"?>
<!-- Generator: Adobe Illustrator 26.0.2, SVG Export Plug-In . SVG Version: 6.00 Build 0)  -->
<svg version="1.0" id="Layer_1" xmlns="http://www.w3.org/2000/svg" xmlns:xlink="http://www.w3.org/1999/xlink" x="0px" y="0px"
	 viewBox="0 0 50 50" style="enable-background:new 0 0 50 50;" xml:space="preserve">
<style type="text/css">
	.st0{fill:#F8DF15;}
</style>
<g>
	<rect x="0" y="0" class="st0" width="50" height="50"/>
	<path d="M21.9,41h-8.7v-3.4l7.2-12h6.1v11.7h2.3V41h-2.3v4.7h-4.6V41z M21.9,37.2v-2.9c0-1.3,0.1-3.3,0.2-4.6h-0.1
		c-0.5,1.2-1.1,2.3-1.7,3.5l-2.4,4.1H21.9z"/>
	<path d="M30.6,43.1l2.8-3.4c1.4,1.3,3.4,2.1,5,2.1c1.8,0,2.7-0.7,2.7-1.8c0-1.2-1.1-1.6-2.9-2.3l-2.6-1.1c-2.2-0.9-4.2-2.7-4.2-5.7
		c0-3.5,3.1-6.3,7.5-6.3c2.4,0,4.9,0.9,6.7,2.7l-2.5,3.1c-1.4-1-2.6-1.6-4.3-1.6c-1.5,0-2.4,0.6-2.4,1.7c0,1.2,1.3,1.6,3.1,2.3
		l2.6,1c2.6,1,4.1,2.8,4.1,5.7c0,3.4-2.9,6.5-7.9,6.5C35.6,46,32.7,45,30.6,43.1z"/>
</g>
</svg>
