<?xml version="1.0" encoding="utf-8"?>
<!-- Generator: Adobe Illustrator 16.0.0, SVG Export Plug-In . SVG Version: 6.00 Build 0)  -->
<!DOCTYPE svg PUBLIC "-//W3C//DTD SVG 1.1//EN" "http://www.w3.org/Graphics/SVG/1.1/DTD/svg11.dtd">
<svg version="1.1" id="Layer_1" xmlns="http://www.w3.org/2000/svg" xmlns:xlink="http://www.w3.org/1999/xlink" x="0px" y="0px"
	 width="1680px" height="1050px" viewBox="0 0 " enable-background="new 0 0  " xml:space="preserve">
<g>
	<rect x="665" y="349" fill="#F8DF15" width="351.539" height="351.532"/>
	<g>
		<path d="M818.905,636.934h-61.148v-24.236l50.609-84.617h42.995v82.285h16.028v26.568h-16.028v33.029h-32.456V636.934z
			 M818.905,610.365v-20.736c0-9.171,0.786-23.254,1.186-32.425h-0.786c-3.708,8.213-7.618,16.22-11.725,24.627l-16.612,28.534
			H818.905z"/>
		<path d="M880.061,651.791L900,627.75c10.16,8.792,23.652,14.845,35.175,14.845c12.909,0,18.956-4.876,18.956-12.683
			c0-8.424-8.01-11.174-20.516-16.416l-18.563-7.833c-15.255-6.077-29.516-18.772-29.516-39.866
			c0-24.418,21.903-43.965,52.764-43.965c16.819,0,34.598,6.432,47.299,19.14l-17.392,21.891
			c-9.569-7.243-18.563-11.146-29.907-11.146c-10.737,0-17.188,4.308-17.188,11.933c0,8.226,8.986,11.331,21.885,16.429
			l18.176,7.205c17.98,7.268,28.743,19.351,28.743,39.891c0,24.225-20.332,45.513-55.513,45.513
			C915.451,672.687,895.102,665.688,880.061,651.791z"/>
	</g>
</g>
</svg>
